<svg xmlns="http://www.w3.org/2000/svg" xmlns:xlink="http://www.w3.org/1999/xlink" width="1920" height="713" viewBox="0 0 1920 713"><defs><style>.a{fill:#fff;stroke:#707070;}.b{clip-path:url(#a);}.c{fill:url(#b);}.d{fill:url(#c);}</style><clipPath id="a"><rect class="a" width="1920" height="713" transform="translate(0 2761)"/></clipPath><linearGradient id="b" x1="0.5" x2="1.188" y2="1.07" gradientUnits="objectBoundingBox"><stop offset="0" stop-color="#e62648"/><stop offset="1" stop-color="#ff4665"/></linearGradient><linearGradient id="c" x1="0.5" x2="1.188" y2="1.07" gradientUnits="objectBoundingBox"><stop offset="0" stop-color="#ff4665"/><stop offset="1" stop-color="#e62648"/></linearGradient></defs><g class="b" transform="translate(0 -2761)"><path class="c" d="M2495.209,1942.132s1.752,68.589.07,185.758c-113.285,80.674-276.5,62.966-515.505-310.168-447.568-698.75-1171.372-5.1-1342.7-681.06S-162.623,583.948,39.69,4.51C67.319,1.473,2489.875,0,2489.875,0l3.112,617.792L2491.95,810.57l1.037,549.023,2.222,363.438Z" transform="translate(2013.79 3309.011) rotate(135)"/><path class="d" d="M1764.981,1327.205s1.239,46.872.05,126.942c-80.132,55.131-195.583,43.029-364.641-211.961C1083.8,764.678,571.822,1238.7,450.632,776.767S-115.031,399.055,28.075,3.082C47.618,1.007,1761.209,0,1761.209,0l2.2,422.184-.734,131.74.734,375.189,1.571,248.364Z" transform="matrix(-0.809, 0.588, -0.588, -0.809, 2160.772, 3433.43)"/></g></svg>