<svg xmlns="http://www.w3.org/2000/svg" width="273.968" height="65.85" viewBox="0 0 273.968 65.85"><defs><style>.a{fill:none;stroke-miterlimit:10;}.b,.d{fill:#fff;}.c,.d{stroke:none;}</style></defs><g transform="translate(-1266.19 -904.988)"><g class="a" transform="translate(0 -0.071)"><path class="c" d="M1371.793,970.731h-77.645c-15.44,0-27.957-11.575-27.957-25.855V931.16c0-14.279,12.517-25.855,27.957-25.855h62.8c15.441,0,15.773,15.556,15.773,29.835l10.578,24.952C1383.3,969.565,1387.233,970.731,1371.793,970.731Z"/><path class="d" d="M 1371.792602539063 960.7314453125 C 1372.110229492188 960.7314453125 1372.413940429688 960.7308349609375 1372.704956054688 960.7296752929688 L 1363.511474609375 939.0433349609375 L 1362.71826171875 937.1724243164063 L 1362.71826171875 935.1402587890625 C 1362.71826171875 915.304931640625 1360.170532226563 915.304931640625 1356.944946289063 915.304931640625 L 1294.147338867188 915.304931640625 C 1284.24560546875 915.304931640625 1276.18994140625 922.4174194335938 1276.18994140625 931.1597900390625 L 1276.18994140625 944.8765869140625 C 1276.18994140625 953.6189575195313 1284.24560546875 960.7314453125 1294.147338867188 960.7314453125 L 1371.792602539063 960.7314453125 M 1371.792602539063 970.7314453125 L 1294.147338867188 970.7314453125 C 1278.707275390625 970.7314453125 1266.18994140625 959.156005859375 1266.18994140625 944.8765869140625 L 1266.18994140625 931.1597900390625 C 1266.18994140625 916.881103515625 1278.707275390625 905.304931640625 1294.147338867188 905.304931640625 L 1356.944946289063 905.304931640625 C 1372.385620117188 905.304931640625 1372.71826171875 920.8607177734375 1372.71826171875 935.1402587890625 L 1383.29638671875 960.0926513671875 C 1383.29638671875 969.564697265625 1387.232666015625 970.7314453125 1371.792602539063 970.7314453125 Z"/></g><g transform="translate(1284.777 920.349)"><path class="b" d="M1313.8,945.92a1.179,1.179,0,0,1,.331-.765,1.1,1.1,0,0,1,.814-.288h3.9a1.106,1.106,0,0,1,.739.288.852.852,0,0,1,.292.765l-.96,10.981a1.223,1.223,0,0,1-.192.55,1.65,1.65,0,0,1-.571.5c-.016,0-.024,0-.025.012s-.01.012-.025.012a18.982,18.982,0,0,1-2.54,1.411,19.416,19.416,0,0,1-2.794,1.041,22.786,22.786,0,0,1-2.951.645,19.749,19.749,0,0,1-2.987.228,17.618,17.618,0,0,1-4.8-.645,16.323,16.323,0,0,1-10.175-8.385,16.353,16.353,0,0,1-1.461-4.354,17.792,17.792,0,0,1-.22-4.869,18.95,18.95,0,0,1,1.07-4.844,20,20,0,0,1,2.225-4.366,21.242,21.242,0,0,1,3.183-3.708,20.621,20.621,0,0,1,3.947-2.871,20.275,20.275,0,0,1,4.528-1.853,18.459,18.459,0,0,1,4.926-.658,18.872,18.872,0,0,1,3.359.3,16.929,16.929,0,0,1,3.187.9q.577.24,1.371.6a13.553,13.553,0,0,1,1.5.789,6.975,6.975,0,0,1,1.179.885,1.124,1.124,0,0,1,.436.885,1.707,1.707,0,0,1-.268.61q-.252.417-.621.945t-.825,1.088q-.456.562-.879,1.017t-.759.753a.974.974,0,0,1-.5.3,1.172,1.172,0,0,1-.342-.061,1.146,1.146,0,0,1-.4-.227,12.025,12.025,0,0,0-7.048-2.3,11.9,11.9,0,0,0-4.772.956,12.826,12.826,0,0,0-3.886,2.584,13.442,13.442,0,0,0-2.721,3.768,12.638,12.638,0,0,0-1.256,4.509,11.026,11.026,0,0,0,.52,4.581,10.706,10.706,0,0,0,2.162,3.732,10.292,10.292,0,0,0,3.452,2.511,10.471,10.471,0,0,0,4.393.921,11.646,11.646,0,0,0,1.757-.132,15.491,15.491,0,0,0,1.646-.333,11.517,11.517,0,0,0,1.391-.456,7.641,7.641,0,0,0,1.023-.49Z" transform="translate(-1290.103 -924.75)"/><path class="b" d="M1336.434,943.05a19.1,19.1,0,0,1,1.071-4.857,19.965,19.965,0,0,1,2.224-4.377,21.192,21.192,0,0,1,3.184-3.708,20.149,20.149,0,0,1,3.945-2.859,20.541,20.541,0,0,1,4.527-1.842,18.45,18.45,0,0,1,4.925-.658,17.1,17.1,0,0,1,8.992,2.5,16.057,16.057,0,0,1,5.992,6.566,17.182,17.182,0,0,1,1.459,4.377,17.58,17.58,0,0,1,.231,4.881,18.554,18.554,0,0,1-1.084,4.857,20.712,20.712,0,0,1-2.221,4.353,20.335,20.335,0,0,1-3.182,3.7,20.857,20.857,0,0,1-3.958,2.846,20.166,20.166,0,0,1-4.525,1.831,18.818,18.818,0,0,1-4.925.645,17.572,17.572,0,0,1-4.811-.645,16.431,16.431,0,0,1-4.205-1.842,16.176,16.176,0,0,1-5.969-6.542,16.633,16.633,0,0,1-1.45-4.354A17.753,17.753,0,0,1,1336.434,943.05Zm6.918-.047a11.251,11.251,0,0,0,.477,4.521,10.214,10.214,0,0,0,2.072,3.659,10.034,10.034,0,0,0,3.373,2.465,10.489,10.489,0,0,0,4.406.909,11.541,11.541,0,0,0,4.54-.909,12.97,12.97,0,0,0,3.817-2.465,12.838,12.838,0,0,0,2.723-3.659A12.381,12.381,0,0,0,1366.03,943a11.21,11.21,0,0,0-.48-4.5,10.25,10.25,0,0,0-2.083-3.671,10.061,10.061,0,0,0-3.384-2.476,10.43,10.43,0,0,0-4.382-.909,11.6,11.6,0,0,0-4.564.909,12.657,12.657,0,0,0-3.8,2.476,13.114,13.114,0,0,0-2.714,3.671A12.333,12.333,0,0,0,1343.352,943Z" transform="translate(-1300.405 -924.75)"/></g><g transform="translate(1351.391 904.988)"><path class="b" d="M1400.28,969.907a14.443,14.443,0,0,1-.864-1.641q-.378-.842-.732-1.729l-22.747-59.553a1.126,1.126,0,0,0-.067-.4,1,1,0,0,1-.066-.354q0-1.242,1.64-1.242h14.279a2.3,2.3,0,0,1,2.305,1.685l13.525,40.352q1.818-5.055,3.481-10.088t3.282-10.088q1.617-5.055,3.281-10.088t3.481-10.088a2.384,2.384,0,0,1,2.439-1.685h13.967a2.167,2.167,0,0,1,1.442.377,1.277,1.277,0,0,1,.421,1,1.821,1.821,0,0,1-.044.488v.132l-22.881,59.553c-.149.414-.326.873-.532,1.374a9.518,9.518,0,0,1-.71,1.4,4.452,4.452,0,0,1-.931,1.087,1.818,1.818,0,0,1-1.2.443H1402.1A1.808,1.808,0,0,1,1400.28,969.907Z" transform="translate(-1375.803 -904.988)"/><path class="b" d="M1473.718,906.717a1.3,1.3,0,0,1,.288-.577,3.3,3.3,0,0,1,1.353-1,2.079,2.079,0,0,1,.753-.155h11.352a1.886,1.886,0,0,1,1.286.466,5.626,5.626,0,0,1,.8.821l1.109,2.528,23.28,60.041a1.3,1.3,0,0,1-.133,1.441,2.154,2.154,0,0,1-1.684.554h-12.727a2.779,2.779,0,0,1-1.574-.377,2.433,2.433,0,0,1-.864-1.263q-.887-2.263-1.729-4.5t-1.685-4.5h-23.546q-.842,2.261-1.707,4.5t-1.707,4.5a2.22,2.22,0,0,1-2.262,1.64h-13.082a2.159,2.159,0,0,1-1.4-.443,1.047,1.047,0,0,1-.2-1.331Zm8.071,18.979q-.843,2.262-1.707,4.878t-1.708,5.277q-.842,2.662-1.707,5.255t-1.707,4.855h13.613Z" transform="translate(-1392.217 -904.988)"/><path class="b" d="M1543.98,906.939a2.056,2.056,0,0,1,.488-1.374,1.809,1.809,0,0,1,1.463-.577h14.5a3.04,3.04,0,0,1,1.286.311,2.8,2.8,0,0,1,1.153,1.064q5.631,9.091,11.175,17.915t11.219,17.915v-35.52a2.167,2.167,0,0,1,.71-1.241,1.881,1.881,0,0,1,1.242-.444h12.637a2.363,2.363,0,0,1,1.552.511,1.756,1.756,0,0,1,.621,1.44v62.17a1.566,1.566,0,0,1-.532,1.308,2.3,2.3,0,0,1-1.464.421h-14.146a1.477,1.477,0,0,1-1.02-.4,6.914,6.914,0,0,1-.931-1.064q-5.9-9.754-11.662-19.289T1560.564,930.8v38.091a1.7,1.7,0,0,1-2.04,1.951h-12.594a1.834,1.834,0,0,1-1.485-.554,2.033,2.033,0,0,1-.466-1.352Z" transform="translate(-1413.259 -904.988)"/></g></g></svg>